<svg width="599" height="601" viewBox="0 0 599 601" fill="none" xmlns="http://www.w3.org/2000/svg">
<path fill-rule="evenodd" clip-rule="evenodd" d="M301.062 600.725C378.125 599.987 454.412 567.988 509.275 513.65C574.437 449.1 607.987 353.612 596.287 262.45C576.225 106.212 448.1 0.199997 299.137 0.199997C185.975 0.199997 75.975 71.1625 27.725 174.062C-9.21252 252.837 -9.27502 347.95 27.725 426.875C75.625 529.05 183.825 599.637 297.212 600.725C298.5 600.737 299.775 600.737 301.062 600.725ZM297.537 550.688C182.437 549.575 75.05 460.35 53.6875 345.962C38.6375 265.312 67.0625 178.05 126.25 120.775C195.375 53.9 304 31.4875 394.312 69.4C475.137 103.325 535.613 182.075 546.763 268.838C556.313 343.2 529.687 421.138 477.375 474.838C431.475 521.925 367.125 550.038 300.737 550.688C299.675 550.688 298.6 550.688 297.537 550.688ZM142.762 422.063L264.437 300.387L142.637 178.588L177.687 143.55L299.487 265.35L425.462 139.375L460.563 174.463L334.587 300.45L460.813 426.675L425.775 461.725L299.537 335.488L177.862 457.163L142.762 422.063Z" fill="#FF8978"/>
</svg>
