<svg width="667" height="667" viewBox="0 0 667 667" fill="none" xmlns="http://www.w3.org/2000/svg">
<path fill-rule="evenodd" clip-rule="evenodd" d="M333.333 0C517.428 0 666.667 149.238 666.667 333.333C666.667 517.428 517.428 666.667 333.333 666.667C149.238 666.667 0 517.428 0 333.333C0 149.238 149.238 0 333.333 0ZM333.333 66.6667C186.057 66.6667 66.6667 186.057 66.6667 333.333C66.6667 480.609 186.057 600 333.333 600C480.609 600 600 480.609 600 333.333C600 186.057 480.609 66.6667 333.333 66.6667ZM443.096 209.763L266.667 386.193L223.57 343.096C210.553 330.079 189.447 330.079 176.43 343.096C163.412 356.114 163.412 377.219 176.43 390.237L243.096 456.904C256.114 469.921 277.219 469.921 290.237 456.904L490.237 256.904C503.254 243.886 503.254 222.781 490.237 209.763C477.219 196.746 456.114 196.746 443.096 209.763Z" fill="#AAEC8A"/>
</svg>
